<?xml version="1.0" encoding="UTF-8"?>
<svg width="140px" height="26px" viewBox="0 0 140 26" version="1.1" xmlns="http://www.w3.org/2000/svg" xmlns:xlink="http://www.w3.org/1999/xlink">
    <!-- Generator: Sketch 51 (57462) - http://www.bohemiancoding.com/sketch -->
    <title>Artboard</title>
    <desc>Created with Sketch.</desc>
    <defs></defs>
    <g id="Artboard" stroke="none" stroke-width="1" fill="none" fill-rule="evenodd">
        <g id="logo-light" transform="translate(1.000000, 1.000000)" fill-rule="nonzero">
            <path d="M10.944015,14.8000308 L8.10401496,14.8000308 C7.00925216,14.7315101 5.92171828,15.0191804 5.00401496,15.6200308 C4.32874856,16.1012876 3.92965259,16.8808302 3.93401496,17.7100308 C3.89584184,18.4830933 4.19501618,19.2346776 4.75401496,19.7700308 C5.42811424,20.3115099 6.28140315,20.5792784 7.14401496,20.5200308 C8.17990507,20.5771188 9.19551195,20.2169745 9.96401496,19.5200308 C10.6501177,18.8338335 11.0134641,17.8891327 10.964015,16.9200308 L10.944015,14.8000308 Z M4.66401496,4.19003084 C5.51801332,4.06190777 6.38046064,3.9983942 7.24401496,4.00003084 C12.204015,4.00003084 14.6806816,6.40336417 14.674015,11.2100308 L14.6740284,23.3400308 L11.004015,23.3400308 L11.004015,22.3400308 C8.83401496,23.4300308 3.80401496,23.9700308 1.60401496,21.8300308 C0.5435616,20.8020988 -0.0368940475,19.3763546 0.00401495699,17.9000308 C-0.0627313358,16.2332175 0.706170695,14.642903 2.05401496,13.6600308 C3.76092548,12.5571048 5.77544,12.0280758 7.80401496,12.1500308 L10.944015,12.1500308 L10.944015,11.0600308 C11.0187569,9.99886839 10.6821495,8.94965611 10.004015,8.13003084 C9.15131927,7.38607475 8.0307103,7.02458799 6.90401496,7.13003084 C6.14685664,7.12580579 5.39177855,7.20970335 4.65401496,7.38003084 L4.66401496,4.19003084 Z" id="Fill-1" fill="#FFFFFF"></path>
            <path d="M93.945579,14.8000308 L91.105579,14.8000308 C89.9940612,14.7204698 88.8872195,15.0086 87.955579,15.6200308 C87.2803126,16.1012876 86.8812166,16.8808302 86.885579,17.7100308 C86.8474059,18.4830933 87.1465802,19.2346776 87.705579,19.7700308 C88.3796783,20.3115099 89.2329672,20.5792784 90.095579,20.5200308 C91.1314691,20.5771188 92.147076,20.2169745 92.915579,19.5200308 C93.6016817,18.8338335 93.9650281,17.8891327 93.915579,16.9200308 L93.945579,14.8000308 Z M87.665579,4.19003084 C88.5195773,4.06190777 89.3820247,3.9983942 90.245579,4.00003084 C95.205579,4.00003084 97.6822456,6.40336417 97.675579,11.2100308 L97.6755924,23.3400308 L94.025579,23.3400308 L94.025579,22.3400308 C91.855579,23.4300308 86.825579,23.9700308 84.625579,21.8300308 C83.5551662,20.8032034 82.9670403,19.3728231 83.005579,17.8900308 C82.9273059,16.2323723 83.6765914,14.6438872 85.005579,13.6500308 C86.7124895,12.5471048 88.727004,12.0180758 90.755579,12.1400308 L93.895579,12.1400308 L93.895579,11.0600308 C93.9731054,10.0002031 93.640128,8.95114517 92.965579,8.13003084 C92.1128833,7.38607475 90.9922743,7.02458799 89.865579,7.13003084 C89.1084207,7.12580579 88.3533426,7.20970335 87.615579,7.38003084 L87.665579,4.19003084 Z" id="Fill-3" fill="#FFFFFF"></path>
            <path d="M21.8438035,13.7123349 C21.838781,15.4195603 22.4780085,17.065839 23.6338035,18.3223349 C24.9049594,19.6079659 26.6692015,20.2823146 28.4738035,20.1723349 C29.9787062,20.1730751 31.4539852,19.7540404 32.7338035,18.9623349 L32.7338035,22.1923349 C31.2615099,22.9953481 29.5996482,23.3857647 27.9238035,23.3223349 C25.2377075,23.4484769 22.6208016,22.4481085 20.7038035,20.5623349 C18.9062552,18.7393581 17.9309893,16.2614602 18.0038035,13.7023349 C17.9589293,11.1502698 18.9386124,8.68665468 20.7238035,6.86233487 C22.6608608,4.9099015 25.3369969,3.87362597 28.0838035,4.01233487 C29.6739527,3.98428471 31.2488151,4.32664611 32.6838035,5.01233487 L32.6838035,8.32233487 C31.4144021,7.55678726 29.95604,7.16188635 28.4738035,7.18233487 C26.7032864,7.07540075 24.9707211,7.7257936 23.7079406,8.97140642 C22.4451601,10.2170192 21.7711135,11.9405199 21.8538035,13.7123349" id="Fill-5" fill="#FFFFFF"></path>
            <path d="M37.8438035,13.7120674 C37.838781,15.4192929 38.4780085,17.0655716 39.6338035,18.3220674 C40.8945984,19.5827694 42.6338085,20.2449791 44.4138035,20.1420674 C45.9189274,20.1444022 47.3946353,19.7252458 48.6738035,18.9320674 L48.6738035,22.1620674 C47.2231784,22.9677885 45.5825223,23.3684539 43.9238035,23.3220674 C41.2373128,23.4506727 38.6194526,22.4499394 36.7038035,20.5620674 C34.9062552,18.7390906 33.9309893,16.2611928 34.0038035,13.7020674 C33.9589293,11.1500023 34.9386124,8.68638725 36.7238035,6.86206744 C38.6577809,4.91121048 41.3302085,3.87496301 44.0738035,4.01206744 C45.66417,3.98180298 47.2395366,4.32427396 48.6738035,5.01206744 L48.6738035,8.32206744 C47.4021462,7.55321499 45.9396276,7.15812703 44.4538035,7.18206744 C42.6664042,7.1007344 40.9251248,7.763217 39.6438035,9.01206744 C38.4301272,10.2690884 37.7802818,11.9659068 37.8438035,13.7120674" id="Fill-7" fill="#FFFFFF"></path>
            <path d="M63.8371464,4 L67.5071464,4 L67.5071464,23.34 L63.8371464,23.34 L63.8371464,22.34 C58.9971464,24.1 54.9771464,23.02 53.5871464,21.65 C52.4584325,20.3869309 51.8917138,18.7192618 52.0171464,17.03 L52.0171464,4.03 L55.6471464,4.03 L55.6471464,16.24 C55.5668307,17.2984961 55.8961798,18.3474014 56.5671464,19.17 C57.2483042,19.8638187 58.1966147,20.2285535 59.1671464,20.17 C60.4460242,20.2130483 61.6750655,19.6721229 62.5071464,18.7 C63.4426389,17.4448575 63.912797,15.9035875 63.8371464,14.34 L63.8371464,4 Z" id="Fill-9" fill="#FFFFFF"></path>
            <path d="M75.61,13 C75.5220096,11.4411193 75.9779698,9.90004439 76.9,8.64 C77.7309745,7.64582234 78.9751615,7.09202989 80.27,7.14 C80.8836859,7.12803761 81.4910953,7.26530527 82.04,7.54 L82.04,4.16 L81.95,4.16 C79.8000918,3.94267105 77.6291354,4.23030566 75.61,5 L75.61,4 L72,4 L72,23.37 L75.61,23.37 L75.61,13 Z" id="Fill-11" fill="#FFFFFF"></path>
            <g id="Group-15" transform="translate(102.000000, 0.000000)" fill="#FFFFFF">
                <path d="M3.76,7.87 L3.76,18.05 C3.64720086,18.7974374 3.89162255,19.5544959 4.42019788,20.094861 C4.94877322,20.6352261 5.70025649,20.8962861 6.45,20.8 C7.39620736,20.8353236 8.32547537,20.5420566 9.08,19.97 L9.08,23.29 C8.12482167,23.7654113 7.06635349,23.9956625 6,23.96 C2,23.96 0,22.04 0,18.05 L0,0 L3.76,0 L3.76,4.4 L8.76,4.4 L8.76,7.87 L3.76,7.87 Z" id="Fill-13"></path>
            </g>
            <path d="M127.756909,12.3187276 L127.756909,11.6187276 C127.775352,10.3961227 127.368891,9.20501512 126.606909,8.24872756 C125.826215,7.38787724 124.696887,6.92805339 123.536909,6.99872756 C122.338629,6.97292625 121.184674,7.45192647 120.356909,8.31872756 C119.370439,9.42895232 118.782723,10.8366544 118.686909,12.3187276 L127.756909,12.3187276 Z M130.086909,18.8487276 L130.086909,22.1187276 C128.396382,22.9904295 126.507026,23.4041571 124.606909,23.3187276 C122.00502,23.4572706 119.464748,22.4955964 117.606909,20.6687276 C115.838654,18.8060813 114.903733,16.3045347 115.016909,13.7387276 C114.867278,11.1435538 115.715115,8.58931084 117.386909,6.59872756 C118.914605,4.90324897 121.105266,3.95761336 123.386909,4.00872756 C125.523877,3.905062 127.601588,4.72885634 129.086909,6.26872756 C130.486909,7.76872756 131.196909,9.93872756 131.196909,12.7687276 C131.196909,13.5387276 131.106909,15.1587276 131.106909,15.1587276 L118.646909,15.1587276 C118.799942,16.6432263 119.546475,18.002854 120.716909,18.9287276 C121.960287,19.831642 123.47148,20.2895792 125.006909,20.2287276 C126.807201,20.3118137 128.586984,19.8178188 130.086909,18.8187276 L130.086909,18.8487276 Z" id="Fill-16" fill="#FFFFFF"></path>
            <polygon id="Fill-18" fill="#EC008C" points="138.41 23.41 133 23.41 133 18"></polygon>
        </g>
    </g>
</svg>